<?xml version="1.0" encoding="UTF-8" standalone="no"?>
<!DOCTYPE svg PUBLIC "-//W3C//DTD SVG 1.1//EN" "http://www.w3.org/Graphics/SVG/1.1/DTD/svg11.dtd">
<svg width="100%" height="100%" viewBox="0 0 379 379" version="1.1" xmlns="http://www.w3.org/2000/svg" xmlns:xlink="http://www.w3.org/1999/xlink" xml:space="preserve" xmlns:serif="http://www.serif.com/" style="fill-rule:evenodd;clip-rule:evenodd;stroke-linejoin:round;stroke-miterlimit:1.41421;">
    <g transform="matrix(1,0,0,1,-66.5759,-66.5759)">
        <g id="logo" transform="matrix(3.30237,0,0,4.15536,-35.3804,-29.5292)">
            <path d="M51.622,44.759L66.266,77.905L37.185,77.905L51.622,44.759ZM50.832,89.042C45.743,88.817 41.044,86.506 37.953,82.905L65.209,82.905C61.44,87.086 56.389,89.291 50.832,89.042ZM139.267,77.905L110.186,77.905L124.622,44.759L139.267,77.905ZM123.832,89.042C118.743,88.817 114.045,86.506 110.953,82.905L138.21,82.905C134.441,87.086 129.391,89.291 123.832,89.042ZM106.61,109.299L70.018,109.299C74.84,105.582 81.208,103.524 88.212,103.524C95.36,103.524 102.143,105.734 106.61,109.299ZM50.61,94.038C50.975,94.054 51.337,94.062 51.698,94.062C60.168,94.062 67.587,89.628 72.195,81.773C72.196,81.772 72.198,81.771 72.199,81.77C72.2,81.768 72.201,81.765 72.202,81.763C72.223,81.728 72.245,81.695 72.266,81.66C72.346,81.521 72.409,81.378 72.46,81.232C72.463,81.223 72.469,81.214 72.472,81.205C72.533,81.025 72.568,80.838 72.587,80.65C72.592,80.599 72.589,80.548 72.591,80.496C72.596,80.359 72.591,80.222 72.574,80.086C72.566,80.025 72.556,79.966 72.544,79.907C72.516,79.766 72.473,79.628 72.42,79.492C72.407,79.46 72.405,79.426 72.391,79.395L55.299,40.71L85.597,40.71L85.597,98.62C75.899,99.255 67.393,103.407 61.982,110.248C61.387,111 61.275,112.025 61.693,112.888C62.11,113.751 62.984,114.299 63.943,114.299L112.252,114.299C112.259,114.298 112.265,114.298 112.272,114.299C113.653,114.299 114.772,113.18 114.772,111.799C114.772,111.192 114.556,110.637 114.197,110.204C109.843,103.61 100.78,99.203 90.597,98.602L90.597,40.71L120.932,40.71L104.078,79.406C104.069,79.426 104.067,79.448 104.06,79.468C103.992,79.634 103.94,79.804 103.91,79.976C103.908,79.987 103.904,79.997 103.902,80.008C103.872,80.194 103.868,80.383 103.88,80.57C103.884,80.623 103.895,80.675 103.902,80.727C103.919,80.86 103.946,80.992 103.985,81.121C104.004,81.185 104.027,81.249 104.052,81.312C104.071,81.362 104.082,81.414 104.105,81.464C107.503,88.728 115.159,93.663 123.61,94.038C123.975,94.054 124.337,94.062 124.699,94.062C133.169,94.062 140.587,89.628 145.196,81.773C145.197,81.772 145.198,81.771 145.199,81.77C145.201,81.768 145.201,81.765 145.203,81.763C145.223,81.728 145.246,81.695 145.266,81.66C145.347,81.521 145.409,81.378 145.46,81.232C145.464,81.223 145.469,81.214 145.473,81.205C145.533,81.025 145.568,80.838 145.587,80.65C145.592,80.599 145.59,80.548 145.592,80.496C145.597,80.359 145.592,80.222 145.574,80.086C145.566,80.025 145.557,79.966 145.544,79.907C145.516,79.766 145.474,79.628 145.42,79.492C145.408,79.46 145.405,79.426 145.391,79.395L128.3,40.71L134.252,40.71C135.633,40.71 136.752,39.591 136.752,38.21C136.752,36.829 135.633,35.71 134.252,35.71L90.597,35.71L90.597,25.628C90.597,24.248 89.478,23.128 88.097,23.128C86.716,23.128 85.597,24.248 85.597,25.628L85.597,35.71L41.137,35.71C39.756,35.71 38.637,36.829 38.637,38.21C38.637,39.591 39.756,40.71 41.137,40.71L47.932,40.71L31.077,79.406C31.068,79.426 31.067,79.448 31.059,79.468C30.992,79.634 30.939,79.804 30.91,79.976C30.908,79.987 30.903,79.997 30.901,80.008C30.872,80.194 30.868,80.383 30.88,80.57C30.883,80.623 30.895,80.675 30.901,80.727C30.918,80.859 30.945,80.99 30.984,81.121C31.003,81.185 31.026,81.249 31.051,81.312C31.071,81.362 31.082,81.414 31.105,81.464C34.502,88.728 42.159,93.663 50.61,94.038Z" style="fill:rgb(87,203,204);fill-rule:nonzero;"/>
        </g>
    </g>
</svg>
